<svg width="181" height="52" viewBox="0 0 181 52" fill="none" xmlns="http://www.w3.org/2000/svg">
<path d="M25.08 13.2748H14.01C12.65 13.2748 12.17 13.7437 12.17 15.0837V18.2229C12.17 19.5628 12.65 19.9839 14.01 19.9839H18.21V20.8166C18.21 22.6159 16.42 23.6687 13.48 23.6687C10.03 23.6687 8.67 22.2427 8.67 19.314V11.686C8.67 8.75733 10.03 7.33128 13.48 7.33128C15.93 7.33128 17.25 8.17351 18.03 10.0494C18.52 11.351 19.04 11.5999 20.4 11.1883L25.08 9.59C26.39 9.17845 26.7 8.54677 26.26 7.33128C24.42 2.64156 20.22 0 13.48 0C4.86 0 0 4.47916 0 11.7339V19.2661C0 26.5113 4.86 31 13.48 31C22.1 31 26.92 26.5113 26.92 20.6061V15.0837C26.92 13.7437 26.48 13.2748 25.08 13.2748Z" fill="#0A0A0A"/>
<g clip-path="url(#clip0_1_1085)">
<g clip-path="url(#clip1_1_1085)">
<path d="M45.5213 -0.314986L37.5758 15.3813H53.4668L45.5213 -0.314986ZM35.6378 19.2557L30.0198 30.6881H49.0084L41.6449 19.2557H35.6378ZM55.4049 19.2557H46.2958L53.4668 30.6881H61.0226L55.4049 19.2557Z" fill="black"/>
</g>
</g>
<path d="M78.7 1H65.88C64.48 1 64 1.48811 64 2.88271V30.1671C64 31.5219 64.48 32 65.88 32H78.88C85.05 32 89.64 28.9916 89.64 23.3634C89.64 19.5781 88.02 17.0877 85.22 15.8724V15.6931C87.46 14.169 88.37 12.2066 88.37 9.28792C88.37 3.96851 84.74 1 78.7 1ZM79.58 10.4634C79.58 12.1668 78.66 12.8143 76.91 12.8143H72.66V8.02282H76.91C78.66 8.02282 79.58 8.75996 79.58 10.4634ZM80.54 22.3673C80.54 24.2002 79.62 24.9373 77.74 24.9373H72.66V19.8371H77.74C79.62 19.8371 80.54 20.624 80.54 22.3673Z" fill="#0A0A0A"/>
<path d="M107.35 1H94.88C93.48 1 93 1.47892 93 2.83585V30.1641C93 31.5211 93.48 32 94.88 32H99.83C101.23 32 101.66 31.5211 101.66 30.1641V21.6933H102.67C104.46 21.6933 105.21 22.4416 105.95 23.9182L108.75 29.9047C109.45 31.4313 110.46 32 112.78 32H117.51C118.95 32 119.26 31.0422 118.64 29.8648L114.7 22.3917C114.35 21.6933 113.96 21.0846 113.52 20.5159C116.5 18.8597 118.25 15.7966 118.25 11.5163C118.25 4.75153 113.96 1 107.35 1ZM109.28 11.4763C109.28 13.2723 108.23 14.3997 106.39 14.3997H101.66V8.64274H106.39C108.27 8.64274 109.28 9.73029 109.28 11.4763Z" fill="#0A0A0A"/>
<path d="M122 2.74606V30.2539C122 31.561 122.44 32 123.75 32H128.91C130.23 32 130.66 31.561 130.66 30.2539V2.74606C130.66 1.43901 130.23 1 128.91 1H123.75C122.44 1 122 1.43901 122 2.74606Z" fill="#0A0A0A"/>
<path d="M154.22 1H135.88C134.48 1 134 1.47892 134 2.83585V30.1641C134 31.5211 134.48 32 135.88 32H154.61C155.97 32 156.45 31.5211 156.45 30.1641V26.1931C156.45 24.7963 155.97 24.3573 154.61 24.3573H142.66V20.1667H151.9C153.3 20.1667 153.78 19.6878 153.78 18.291V14.3598C153.78 13.0029 153.3 12.524 151.9 12.524H142.66V8.64274H154.22C155.62 8.64274 156.1 8.16382 156.1 6.757V2.83585C156.1 1.47892 155.62 1 154.22 1Z" fill="#0A0A0A"/>
<path d="M165.83 1H160.88C159.48 1 159 1.47892 159 2.83585V30.1641C159 31.5211 159.48 32 160.88 32H178.21C179.57 32 180.05 31.5211 180.05 30.1641V26.1931C180.05 24.7963 179.57 24.3573 178.21 24.3573H167.66V2.83585C167.66 1.47892 167.23 1 165.83 1Z" fill="#0A0A0A"/>
<path d="M60.1504 45.7663H0.00415039V46.7663H60.1504V45.7663Z" fill="#0A0A0A"/>
<path d="M180 45.7663H119.854V46.7663H180V45.7663Z" fill="#0A0A0A"/>
<path d="M63.1831 43.2323V51.1023H67.8939V50.2523H64.194V47.3923H67.2065V46.5423H64.194V44.0723H67.7726V43.2323H63.1831ZM69.6023 49.3823L68.9957 50.0823C69.3395 50.4423 69.7539 50.7223 70.229 50.9323C70.7042 51.1423 71.2298 51.2423 71.7858 51.2423C72.2003 51.2423 72.5844 51.1923 72.9079 51.0723C73.2415 50.9523 73.5246 50.7923 73.7571 50.5923C73.9997 50.3923 74.1715 50.1523 74.3029 49.8823C74.4243 49.6023 74.4849 49.3123 74.4849 49.0023C74.4849 48.7123 74.4445 48.4623 74.3636 48.2423C74.2726 48.0223 74.1614 47.8323 74.0199 47.6623C73.8683 47.5023 73.6964 47.3523 73.4942 47.2323C73.2921 47.1123 73.0798 47.0023 72.8473 46.9023L71.7252 46.4223C71.5634 46.3623 71.4017 46.2923 71.25 46.2123C71.0984 46.1323 70.9569 46.0523 70.8255 45.9523C70.6941 45.8523 70.593 45.7323 70.5121 45.6023C70.4413 45.4723 70.4009 45.3023 70.4009 45.1123C70.4009 44.7523 70.5323 44.4723 70.8053 44.2723C71.0782 44.0623 71.432 43.9623 71.8768 43.9623C72.2508 43.9623 72.5844 44.0323 72.8776 44.1623C73.1809 44.2923 73.4437 44.4723 73.6863 44.7023L74.2322 44.0623C73.9491 43.7723 73.6054 43.5323 73.2011 43.3523C72.7967 43.1723 72.362 43.0823 71.8768 43.0823C71.5129 43.0823 71.1793 43.1423 70.876 43.2423C70.5727 43.3423 70.3099 43.4923 70.0875 43.6823C69.8651 43.8723 69.6933 44.0923 69.572 44.3423C69.4405 44.6023 69.3799 44.8823 69.3799 45.1723C69.3799 45.4623 69.4304 45.7123 69.5315 45.9323C69.6225 46.1523 69.7539 46.3423 69.9056 46.5023C70.0572 46.6623 70.229 46.8023 70.4211 46.9123C70.6233 47.0223 70.8053 47.1223 70.9973 47.2023L72.1396 47.6923C72.3216 47.7823 72.4934 47.8623 72.6552 47.9423C72.8169 48.0223 72.9585 48.1123 73.0798 48.2123C73.191 48.3123 73.2819 48.4323 73.3527 48.5723C73.4235 48.7123 73.4538 48.8823 73.4538 49.0823C73.4538 49.4723 73.3123 49.7823 73.0191 50.0123C72.726 50.2523 72.3216 50.3723 71.7959 50.3723C71.3815 50.3723 70.9872 50.2823 70.6031 50.1023C70.2189 49.9223 69.8853 49.6823 69.6023 49.3823ZM77.4569 44.0723V51.1023H78.4779V44.0723H80.8839V43.2323H75.0611V44.0723H77.4569ZM82.3092 43.2323V51.1023H87.02V50.2523H83.3201V47.3923H86.3427V46.5423H83.3201V44.0723H86.8987V43.2323H82.3092ZM84.887 42.6323L86.2517 41.2823H85.1195L84.048 42.6323H84.887ZM88.7082 43.2323V51.1023H89.709V47.5723H92.7417V46.7323H89.709V44.0723H93.2875V43.2323H88.7082ZM97.5131 51.2423C98.0185 51.2423 98.4734 51.1523 98.8879 50.9623C99.3024 50.7623 99.6663 50.4923 99.9696 50.1323C100.273 49.7823 100.505 49.3523 100.677 48.8423C100.839 48.3323 100.92 47.7623 100.92 47.1323C100.92 46.5023 100.839 45.9423 100.677 45.4423C100.505 44.9423 100.273 44.5223 99.9696 44.1723C99.6663 43.8223 99.3024 43.5523 98.8879 43.3723C98.4734 43.1823 98.0185 43.0823 97.5131 43.0823C97.0076 43.0823 96.5527 43.1823 96.1383 43.3623C95.7238 43.5423 95.3599 43.8123 95.0667 44.1623C94.7634 44.5123 94.5309 44.9323 94.3692 45.4323C94.1974 45.9323 94.1165 46.5023 94.1165 47.1323C94.1165 47.7623 94.1974 48.3323 94.3692 48.8423C94.5309 49.3523 94.7634 49.7823 95.0667 50.1323C95.3599 50.4923 95.7238 50.7623 96.1383 50.9623C96.5527 51.1523 97.0076 51.2423 97.5131 51.2423ZM97.5131 50.3723C97.1593 50.3723 96.8358 50.2923 96.5527 50.1423C96.2596 49.9923 96.017 49.7723 95.8047 49.4923C95.6025 49.2023 95.4408 48.8623 95.3296 48.4723C95.2184 48.0723 95.1577 47.6223 95.1577 47.1323C95.1577 46.6423 95.2184 46.2023 95.3296 45.8123C95.4408 45.4223 95.6025 45.0823 95.8047 44.8123C96.017 44.5423 96.2596 44.3323 96.5527 44.1823C96.8358 44.0323 97.1593 43.9623 97.5131 43.9623C97.8669 43.9623 98.1904 44.0323 98.4734 44.1823C98.7666 44.3323 99.0092 44.5423 99.2215 44.8123C99.4237 45.0823 99.5854 45.4223 99.6966 45.8123C99.8078 46.2023 99.8685 46.6423 99.8685 47.1323C99.8685 47.6223 99.8078 48.0723 99.6966 48.4723C99.5854 48.8623 99.4237 49.2023 99.2215 49.4923C99.0092 49.7723 98.7666 49.9923 98.4734 50.1423C98.1904 50.2923 97.8669 50.3723 97.5131 50.3723ZM102.628 43.2323V51.1023H103.589V46.9823C103.589 46.5723 103.578 46.1523 103.548 45.7423C103.518 45.3323 103.487 44.9223 103.457 44.5223H103.508L104.367 46.1423L107.258 51.1023H108.299V43.2323H107.339V47.3023C107.339 47.7123 107.349 48.1323 107.379 48.5623C107.41 48.9923 107.44 49.4023 107.46 49.8023H107.41L106.55 48.1723L103.68 43.2323H102.628ZM113.414 51.2423C113.92 51.2423 114.375 51.1523 114.789 50.9623C115.214 50.7623 115.568 50.4923 115.871 50.1323C116.174 49.7823 116.407 49.3523 116.579 48.8423C116.74 48.3323 116.821 47.7623 116.821 47.1323C116.821 46.5023 116.74 45.9423 116.579 45.4423C116.407 44.9423 116.174 44.5223 115.871 44.1723C115.568 43.8223 115.214 43.5523 114.789 43.3723C114.375 43.1823 113.92 43.0823 113.414 43.0823C112.919 43.0823 112.454 43.1823 112.04 43.3623C111.625 43.5423 111.261 43.8123 110.968 44.1623C110.665 44.5123 110.432 44.9323 110.271 45.4323C110.099 45.9323 110.018 46.5023 110.018 47.1323C110.018 47.7623 110.099 48.3323 110.271 48.8423C110.432 49.3523 110.665 49.7823 110.968 50.1323C111.261 50.4923 111.625 50.7623 112.04 50.9623C112.454 51.1523 112.919 51.2423 113.414 51.2423ZM113.414 50.3723C113.061 50.3723 112.737 50.2923 112.454 50.1423C112.161 49.9923 111.918 49.7723 111.716 49.4923C111.504 49.2023 111.342 48.8623 111.231 48.4723C111.12 48.0723 111.059 47.6223 111.059 47.1323C111.059 46.6423 111.12 46.2023 111.231 45.8123C111.342 45.4223 111.504 45.0823 111.716 44.8123C111.918 44.5423 112.161 44.3323 112.454 44.1823C112.737 44.0323 113.061 43.9623 113.414 43.9623C113.768 43.9623 114.092 44.0323 114.385 44.1823C114.668 44.3323 114.911 44.5423 115.123 44.8123C115.325 45.0823 115.487 45.4223 115.598 45.8123C115.709 46.2023 115.77 46.6423 115.77 47.1323C115.77 47.6223 115.709 48.0723 115.598 48.4723C115.487 48.8623 115.325 49.2023 115.123 49.4923C114.911 49.7723 114.668 49.9923 114.385 50.1423C114.092 50.2923 113.768 50.3723 113.414 50.3723Z" fill="#0A0A0A"/>
<defs>
<clipPath id="clip0_1_1085">
<rect width="31" height="31" fill="white" transform="translate(30)"/>
</clipPath>
<clipPath id="clip1_1_1085">
<rect width="83.1355" height="83.1355" fill="white" transform="translate(30)"/>
</clipPath>
</defs>
</svg>
